<svg viewBox="0 0 759 759" xmlns="http://www.w3.org/2000/svg"><path d="m1195.49 3025.65 1.74 1.74a29.538 29.538 0 0 1 0 41.78l-524.058 524.06a29.544 29.544 0 0 1 -41.785 0l-1.741-1.74a29.54 29.54 0 0 1 0-41.78l524.064-524.06a29.538 29.538 0 0 1 41.78 0zm43.53 130.58 1.74 1.74c11.54 11.54 12.98 28.8 3.21 38.57l-443.432 443.43c-9.764 9.77-27.033 8.33-38.572-3.21l-1.741-1.74c-11.538-11.54-12.978-28.81-3.214-38.57l443.439-443.44c9.76-9.76 27.03-8.32 38.57 3.22zm130.58 43.52 1.74 1.74a29.55 29.55 0 0 1 0 41.79l-524.062 524.06a29.544 29.544 0 0 1 -41.785 0l-1.741-1.74a29.552 29.552 0 0 1 0-41.79l524.058-524.06a29.55 29.55 0 0 1 41.79 0z" fill="#e9e9e9" fill-rule="evenodd" transform="translate(-621 -3017)"/></svg>